<svg xmlns="http://www.w3.org/2000/svg" width="1135" height="260"><path fill="#2c3e5d" fill-rule="evenodd" d="M521.48 205.642c-7.975 0-15.391-.718-22.25-2.153-6.858-1.435-12.84-3.907-17.945-7.415-5.104-3.508-9.133-8.172-12.082-13.992-2.952-5.82-4.427-13.035-4.427-21.646 0-7.814 1.238-15.466 3.709-22.962 2.473-7.494 6.62-14.152 12.441-19.971 5.823-5.821 13.638-10.484 23.448-13.993 9.81-3.507 22.052-5.262 36.726-5.262 15.951 0 27.953 2.47 36.009 7.415 8.054 4.942 12.082 12.677 12.082 23.2 0 4.306-.638 8.97-1.914 13.993-1.277 5.023-3.19 9.288-5.742 12.796h-67.232a96.64 96.64 0 0 0-1.316 10.046c-.24 3.189-.359 6.059-.359 8.61 0 1.436.08 3.03.24 4.784.158 1.754.517 3.39 1.076 4.904.558 1.514 1.357 2.79 2.393 3.826 1.037 1.037 2.512 1.555 4.426 1.555 1.436 0 3.071-.478 4.905-1.435 1.836-.957 3.668-2.311 5.503-4.066 1.833-1.754 3.589-3.907 5.264-6.458 1.674-2.553 2.99-5.423 3.947-8.61h39.239L573.4 194.4c-3.192 2.073-6.859 3.827-11.007 5.262-4.147 1.435-8.533 2.59-13.159 3.468-4.669.883-9.38 1.522-14.116 1.914-4.786.398-9.331.598-13.638.598Zm117.238 0c-12.92 0-23.607-.957-32.06-2.87-8.455-1.914-14.356-3.747-17.706-5.502l5.025-23.918h32.3a11.603 11.603 0 0 0-.24 2.272v2.272c0 3.669.838 6.578 2.512 8.73 1.675 2.153 4.586 3.23 8.733 3.23 4.626 0 7.936-1.316 9.93-3.947 1.994-2.631 2.99-5.062 2.99-7.295 0-2.232-.837-4.186-2.512-5.86-1.675-1.674-3.788-3.11-6.34-4.305-2.553-1.196-5.384-2.233-8.494-3.11a2171 2171 0 0 0-8.972-2.511c-2.074-.479-4.426-1.275-7.058-2.392-2.632-1.117-5.144-2.711-7.537-4.784s-4.387-4.743-5.981-8.012c-1.596-3.268-2.393-7.375-2.393-12.318 0-7.016 1.715-12.876 5.144-17.58 3.43-4.703 7.896-8.491 13.399-11.361 5.503-2.87 11.723-4.943 18.662-6.22a115.571 115.571 0 0 1 20.935-1.913c8.772 0 17.068.797 24.883 2.392 7.816 1.595 14.196 3.668 19.14 6.219l-5.502 24.157h-31.104c.159-.798.318-1.593.479-2.391.158-.797.239-1.675.239-2.631 0-2.87-.518-5.543-1.555-8.013-1.037-2.472-3.07-3.707-6.101-3.707-2.712 0-5.423 1.156-8.135 3.468-2.712 2.312-4.068 5.381-4.068 9.208 0 2.55.678 4.585 2.034 6.1 1.355 1.515 3.15 2.75 5.383 3.707 2.234.957 4.745 1.754 7.537 2.392 2.792.638 5.543 1.275 8.254 1.913a87.021 87.021 0 0 1 10.887 3.468c3.429 1.355 6.5 3.15 9.211 5.382 2.713 2.233 4.865 4.983 6.46 8.252 1.596 3.269 2.393 7.295 2.393 12.079 0 6.697-1.555 12.317-4.666 16.862-3.11 4.544-7.417 8.213-12.92 11.002-5.503 2.791-11.963 4.745-19.38 5.86-7.417 1.118-15.351 1.675-23.806 1.675Zm128.482 0c-19.619 0-33.656-3.747-42.11-11.242-9.091-7.814-13.637-19.533-13.637-35.16 0-10.364 2.112-19.773 6.34-28.224 4.226-8.451 10.328-15.467 18.304-21.048 11.643-7.813 27.594-11.72 47.851-11.72 18.981 0 32.779 3.349 41.392 10.046 9.092 7.017 13.638 18.656 13.638 34.92 0 10.047-1.675 19.096-5.024 27.148-3.35 8.053-8.056 14.71-14.117 19.972-12.124 10.205-29.668 15.308-52.637 15.308Zm251.701 0c-5.582 0-10.327-.837-14.236-2.512-3.907-1.674-7.098-3.946-9.57-6.817-2.473-2.87-4.267-6.338-5.383-10.404-1.116-4.066-1.675-8.491-1.675-13.275 0-2.072.16-5.381.478-9.926.32-4.544 1.077-9.567 2.273-15.068 1.196-5.501 2.952-11.163 5.264-16.982a60.007 60.007 0 0 1 9.331-15.906c3.909-4.784 8.733-8.73 14.475-11.84 5.742-3.109 12.68-4.664 20.816-4.664 2.551 0 5.264.24 8.135.718a30.227 30.227 0 0 1 8.254 2.631c2.632 1.276 4.985 3.11 7.058 5.501 2.074 2.392 3.59 5.501 4.546 9.328h1.675l15.552-73.429h49.048l-34.214 160.731h-38.76l-4.307-15.308h-1.675c-.957 1.436-2.432 3.15-4.426 5.143-1.994 1.994-4.506 3.906-7.537 5.74-3.03 1.834-6.62 3.349-10.766 4.545-4.148 1.196-8.932 1.794-14.356 1.794Zm-175.138-1.914 33.975-160.73h49.048l-34.214 160.73h-48.809Zm70.103 0L935.64 100.88h49.048l-22.251 102.85h-48.57Zm-146.187-14.35c3.988 0 7.457-2.232 10.408-6.698 2.951-4.464 5.304-9.926 7.058-16.384 1.755-6.458 3.07-13.155 3.948-20.091.876-6.937 1.315-12.955 1.315-18.059 0-4.464-.439-7.854-1.315-10.165-.878-2.314-2.752-3.468-5.623-3.468-4.307 0-8.015 2.312-11.126 6.936-3.11 4.625-5.622 10.126-7.536 16.504a124.266 124.266 0 0 0-4.187 19.613c-.878 6.697-1.316 12.119-1.316 16.264 0 10.366 2.791 15.547 8.374 15.547Zm275.627-6.22c1.594 0 3.15-.358 4.665-1.076a23.936 23.936 0 0 0 4.307-2.63c1.355-1.037 2.512-2.114 3.47-3.23.813-.943 1.61-1.9 2.392-2.87l9.33-43.531c-1.115-1.755-2.59-3.548-4.425-5.382-1.835-1.833-3.948-2.75-6.34-2.75-3.829 0-7.02 2.112-9.571 6.338-2.553 4.225-4.625 9.129-6.221 14.71a113.592 113.592 0 0 0-3.47 16.742c-.717 5.58-1.076 9.727-1.076 12.438 0 3.19.479 5.86 1.436 8.012.957 2.153 2.79 3.23 5.503 3.23Zm-526.61-38.508h27.275c.318-1.914.639-3.906.957-5.98.319-1.753.598-3.668.838-5.74.239-2.074.359-3.987.359-5.74 0-4.944-.798-8.292-2.393-10.046-1.594-1.755-3.51-2.631-5.742-2.631-2.554 0-4.905.837-7.058 2.511-2.154 1.675-4.108 3.908-5.862 6.697-1.754 2.791-3.35 5.98-4.785 9.568a82.198 82.198 0 0 0-3.59 11.36ZM964.35 91.79c-6.38 0-11.724-1.515-16.03-4.544-4.307-3.03-6.46-7.813-6.46-14.351 0-3.507.717-6.656 2.153-9.448 1.436-2.79 3.389-5.102 5.862-6.936 2.472-1.834 5.343-3.229 8.613-4.186a36.02 36.02 0 0 1 10.169-1.435c6.22 0 11.484 1.515 15.79 4.545 4.308 3.03 6.46 7.734 6.46 14.111 0 3.669-.756 6.856-2.272 9.568a22.688 22.688 0 0 1-5.982 6.936c-2.472 1.914-5.304 3.349-8.493 4.305a33.96 33.96 0 0 1-9.81 1.435Zm-500.291-3.826c0 9.407-2.632 18.098-7.896 26.07-5.264 7.973-13.956 14.033-26.08 18.178l27.755 71.516h-53.355l-21.055-66.254h-2.632l-14.116 66.254H315l32.3-151.881h62.925c7.338 0 14.276.438 20.816 1.315 6.54.878 12.242 2.631 17.107 5.262 4.864 2.631 8.733 6.299 11.604 11.003 2.871 4.704 4.307 10.883 4.307 18.537Zm-68.907 34.203c4.147 0 7.696-1.395 10.647-4.186 2.95-2.79 5.343-6.179 7.178-10.165 1.834-3.987 3.15-8.252 3.948-12.797.797-4.544 1.196-8.49 1.196-11.84 0-4.145-.718-7.693-2.154-10.643-1.435-2.95-4.545-4.425-9.33-4.425H395.87l-11.963 54.056Z"/><path fill="#388bff" d="M114.76 200.703V260l114.695-60.065v-59.289l-114.696 60.057Z"/><path fill="#05c" d="m166.102 86.183 56.593-29.65L114.759 0v59.295l51.343 26.888Zm-95.919 17.704v59.315l44.574 23.338v-59.288l-44.574-23.365Z"/><path fill="#388bff" d="m229.455 67.162-114.696 60.09v59.288l114.696-60.065V67.162ZM6.873 56.5l56.253 29.82 51.631-27.026V0L6.873 56.5Z"/><path fill="#05c" d="M56.654 170.287V96.774L.043 67.135v132.799l114.714 60.065v-59.297l-58.102-30.415Z"/></svg>