<svg xmlns="http://www.w3.org/2000/svg" width="32" height="32"><path fill="#05c" d="M26.182 1.391a4.392 4.392 0 0 1 4.387 4.387v20.445a4.392 4.392 0 0 1-4.387 4.386H5.738a4.392 4.392 0 0 1-4.387-4.387V5.778a4.392 4.392 0 0 1 4.387-4.387h20.444m0-1.391H5.738A5.777 5.777 0 0 0-.04 5.778v20.445A5.777 5.777 0 0 0 5.738 32h20.445a5.777 5.777 0 0 0 5.777-5.778V5.778A5.777 5.777 0 0 0 26.182 0Z"/><path fill="#388bff" d="M15.963 22.177v5.17l9.999-5.237v-5.169l-10 5.236Z"/><path fill="#05c" d="m20.439 12.193 4.933-2.584-9.41-4.929v5.17l4.477 2.343Zm-8.363 1.544v5.17l3.886 2.035v-5.168l-3.886-2.037Z"/><path fill="#388bff" d="m25.962 10.535-10 5.239v5.168l10-5.236v-5.17Zm-19.405-.93 4.904 2.6 4.501-2.356V4.68L6.557 9.606Z"/><path fill="#05c" d="M10.897 19.526v-6.41l-4.935-2.583V22.11l10 5.237v-5.17l-5.065-2.651Z"/></svg>